<?xml version="1.0" standalone="no"?>
<!DOCTYPE svg PUBLIC "-//W3C//DTD SVG 20010904//EN"
 "http://www.w3.org/TR/2001/REC-SVG-20010904/DTD/svg10.dtd">
<svg version="1.0" xmlns="http://www.w3.org/2000/svg"
 width="214.000000pt" height="166.000000pt" viewBox="0 0 214.000000 166.000000"
 preserveAspectRatio="xMidYMid meet">
<metadata>
Created by potrace 1.10, written by Peter Selinger 2001-2011
</metadata>
<g transform="translate(0.000000,166.000000) scale(0.100000,-0.100000)"
fill="#000000" stroke="none">
<path d="M0 830 l0 -830 1070 0 1070 0 0 830 0 830 -1070 0 -1070 0 0 -830z
m990 538 c0 -6 -19 -35 -41 -65 -34 -43 -39 -56 -29 -68 6 -8 8 -20 4 -27 -17
-28 -89 -98 -101 -98 -22 0 -15 14 26 55 36 34 39 40 26 58 -12 18 -9 26 43
88 57 67 72 79 72 57z m243 -105 c15 -18 16 -27 7 -38 -14 -17 -3 -39 34 -74
29 -27 33 -41 12 -41 -8 0 -35 24 -60 53 -41 48 -44 54 -31 74 12 18 12 23 -2
35 -28 22 -73 90 -67 100 5 8 56 -43 107 -109z m-534 -59 c28 -47 51 -88 51
-90 0 -3 -10 -4 -22 -2 -14 2 -36 27 -66 76 l-45 72 -71 2 c-39 1 -80 2 -91 3
-11 1 -59 3 -107 4 -51 0 -88 5 -88 11 0 6 71 10 194 10 l193 0 52 -86z m1156
76 c4 -6 -21 -10 -67 -10 -40 0 -123 -3 -184 -7 l-112 -6 -42 -73 c-34 -61
-46 -74 -67 -74 -29 0 -31 -6 32 98 l50 82 192 0 c117 0 194 -4 198 -10z
m-1189 -145 l38 -64 70 -3 69 -3 45 -83 c29 -56 41 -87 34 -94 -7 -7 -22 11
-45 54 -20 34 -39 71 -42 81 -6 14 -20 17 -85 17 l-78 0 -38 68 -39 67 -53 3
c-77 4 -63 22 17 22 l69 0 38 -65z m959 55 c-3 -5 -28 -10 -55 -10 l-49 0 -41
-70 -42 -69 -76 -3 -77 -3 -38 -75 c-21 -41 -42 -76 -48 -78 -20 -7 -7 36 32
111 l40 77 69 0 69 0 38 65 38 65 73 0 c46 0 71 -4 67 -10z m-436 -60 l42 -50
-52 -95 -53 -95 -71 0 -71 0 -53 95 -52 95 43 50 43 50 91 0 91 0 42 -50z
m-324 -200 c37 -75 41 -79 75 -82 47 -4 41 -22 -9 -26 l-39 -3 -31 64 c-17 36
-31 70 -31 76 0 7 -23 11 -60 11 -55 0 -63 -3 -90 -32 -16 -18 -30 -38 -30
-44 0 -15 -59 -69 -67 -61 -6 7 35 70 92 139 29 36 33 38 91 38 l60 0 39 -80z
m576 38 c19 -24 45 -60 59 -80 14 -21 28 -38 33 -38 4 0 7 -4 7 -10 0 -16 -24
-12 -40 8 -8 9 -32 41 -53 70 l-39 52 -57 0 -57 0 -23 -47 c-45 -96 -47 -98
-90 -101 -32 -2 -41 0 -41 12 0 12 10 16 35 16 33 0 37 3 61 58 44 99 47 102
112 102 56 0 59 -1 93 -42z m-981 -417 c0 -26 4 -30 33 -33 30 -3 32 -6 35
-45 2 -34 -1 -44 -17 -53 -11 -6 -32 -8 -46 -4 -24 6 -25 9 -25 85 0 46 4 79
10 79 6 0 10 -13 10 -29z m730 -51 c0 -47 -4 -80 -10 -80 -6 0 -10 33 -10 80
0 47 4 80 10 80 6 0 10 -33 10 -80z m50 0 c0 -47 -4 -80 -10 -80 -6 0 -10 33
-10 80 0 47 4 80 10 80 6 0 10 -33 10 -80z m-935 60 c4 -6 -5 -10 -19 -10 -32
0 -66 -32 -66 -62 0 -31 29 -58 62 -58 17 0 27 -4 23 -10 -3 -5 -19 -10 -35
-10 -52 0 -87 70 -59 121 16 31 80 51 94 29z m513 -76 c-2 -38 -7 -69 -13 -69
-11 0 -19 119 -10 143 13 34 26 -8 23 -74z m476 65 c-3 -5 -10 -7 -15 -3 -5 3
-7 10 -3 15 3 5 10 7 15 3 5 -3 7 -10 3 -15z m-304 -9 c0 -6 10 -15 23 -20
l22 -9 -22 -7 c-17 -5 -23 -14 -23 -35 0 -21 6 -32 23 -38 20 -8 20 -10 4 -16
-25 -10 -47 12 -47 49 0 18 -5 37 -12 44 -9 9 -9 12 0 12 7 0 12 7 12 15 0 8
5 15 10 15 6 0 10 -5 10 -10z m-260 -24 c0 -7 -9 -16 -20 -19 -15 -4 -20 -14
-20 -41 0 -20 -4 -36 -10 -36 -5 0 -10 23 -10 51 0 39 3 50 13 46 8 -3 20 -1
28 4 18 11 19 11 19 -5z m208 -46 c2 -23 -2 -48 -7 -53 -8 -8 -11 -1 -11 24 0
43 -13 64 -34 56 -10 -4 -16 -18 -16 -41 0 -19 -4 -38 -10 -41 -6 -4 -10 15
-10 49 0 49 2 55 23 58 44 8 62 -6 65 -52z m200 16 c3 -24 0 -26 -34 -26 -31
0 -35 -2 -24 -15 7 -8 23 -15 37 -15 14 0 21 -4 18 -10 -20 -32 -95 8 -95 51
0 58 91 72 98 15z m512 -21 c0 -25 -4 -45 -10 -45 -5 0 -10 18 -10 41 0 36 -2
40 -22 37 -19 -2 -24 -10 -26 -40 -5 -56 -22 -46 -22 11 0 47 2 50 28 53 47 6
62 -8 62 -57z m-1298 18 l15 -38 16 38 c9 20 20 37 26 37 10 0 -43 -138 -59
-154 -13 -13 -13 14 -1 33 6 9 2 30 -10 58 -21 49 -23 63 -10 63 4 0 15 -17
23 -37z m287 15 c12 -31 6 -38 -30 -38 -38 0 -34 -24 4 -28 31 -4 27 -22 -5
-22 -46 0 -71 48 -48 91 16 28 68 26 79 -3z m661 -27 c0 -28 -4 -53 -10 -56
-10 -6 -12 1 -12 55 0 46 1 50 12 50 6 0 10 -22 10 -49z m118 -17 c2 -46 -1
-66 -13 -78 -18 -17 -75 -22 -75 -6 0 6 13 10 29 10 16 0 31 6 35 15 4 11 -1
15 -19 15 -46 0 -68 46 -44 91 8 16 19 19 47 17 l37 -3 3 -61z m110 34 c3 -26
1 -28 -34 -28 -31 0 -35 -2 -24 -15 7 -8 23 -15 37 -15 14 0 21 -4 18 -10 -18
-29 -85 5 -85 42 0 39 19 59 53 56 27 -2 33 -8 35 -30z m222 22 c0 -5 -6 -7
-13 -4 -7 2 -21 -4 -31 -15 -24 -26 -6 -61 31 -61 21 0 24 -3 15 -12 -18 -18
-65 2 -72 32 -10 39 8 70 42 70 15 0 28 -4 28 -10z m108 -22 c3 -26 1 -28 -34
-28 -31 0 -35 -2 -24 -15 7 -8 23 -15 36 -15 13 0 24 -5 24 -11 0 -13 -59 -4
-74 11 -13 13 -9 72 6 82 7 4 24 7 38 6 19 -2 26 -10 28 -30z"/>
<path d="M471 501 c-7 -5 -11 -21 -9 -37 4 -39 42 -41 46 -3 3 29 -17 52 -37
40z"/>
<path d="M1075 490 c-4 -6 5 -10 19 -10 14 0 26 5 26 10 0 6 -9 10 -19 10 -11
0 -23 -4 -26 -10z"/>
<path d="M593 503 c-20 -7 -15 -23 7 -23 11 0 20 4 20 9 0 13 -12 19 -27 14z"/>
<path d="M1356 495 c-19 -20 -20 -26 -2 -50 17 -24 46 -13 46 18 0 35 -23 52
-44 32z"/>
<path d="M1483 503 c-20 -7 -15 -23 7 -23 11 0 20 4 20 9 0 13 -12 19 -27 14z"/>
<path d="M1813 503 c-20 -7 -15 -23 7 -23 11 0 20 4 20 9 0 13 -12 19 -27 14z"/>
</g>
</svg>
